<mxfile host="app.diagrams.net" modified="2024-07-22T02:39:32.556Z" agent="Mozilla/5.0 (Windows NT 10.0; Win64; x64) AppleWebKit/537.36 (KHTML, like Gecko) Chrome/126.0.0.0 Safari/537.36" etag="q-gfuhsnrKss3eRsK5Go" version="24.7.1" type="github">
  <diagram name="第 1 页" id="WT7cbhX90VUeHVNkJZbu">
    <mxGraphModel dx="1166" dy="746" grid="1" gridSize="10" guides="1" tooltips="1" connect="1" arrows="1" fold="1" page="1" pageScale="1" pageWidth="827" pageHeight="1169" math="0" shadow="0">
      <root>
        <mxCell id="0" />
        <mxCell id="1" parent="0" />
        <mxCell id="azgVvd0FIIUqXi__6wGc-1" value="外规查询" style="shape=note2;boundedLbl=1;whiteSpace=wrap;html=1;size=25;verticalAlign=top;align=center;" vertex="1" parent="1">
          <mxGeometry x="186" y="40" width="120" height="60" as="geometry" />
        </mxCell>
        <mxCell id="azgVvd0FIIUqXi__6wGc-9" value="&amp;nbsp; &amp;nbsp; &amp;nbsp; &amp;nbsp; &amp;nbsp; &amp;nbsp; &amp;nbsp; &amp;nbsp; &amp;nbsp; &amp;nbsp; &amp;nbsp; &amp;nbsp; &amp;nbsp; &amp;nbsp; &amp;nbsp; &amp;nbsp; &amp;nbsp; &amp;nbsp; &amp;nbsp; &amp;nbsp;用户" style="shape=umlLifeline;perimeter=lifelinePerimeter;whiteSpace=wrap;html=1;container=1;dropTarget=0;collapsible=0;recursiveResize=0;outlineConnect=0;portConstraint=eastwest;newEdgeStyle={&quot;curved&quot;:0,&quot;rounded&quot;:0};participant=umlActor;" vertex="1" parent="1">
          <mxGeometry x="186" y="130" width="30" height="290" as="geometry" />
        </mxCell>
        <mxCell id="azgVvd0FIIUqXi__6wGc-12" value="" style="html=1;points=[[0,0,0,0,5],[0,1,0,0,-5],[1,0,0,0,5],[1,1,0,0,-5]];perimeter=orthogonalPerimeter;outlineConnect=0;targetShapes=umlLifeline;portConstraint=eastwest;newEdgeStyle={&quot;curved&quot;:0,&quot;rounded&quot;:0};" vertex="1" parent="azgVvd0FIIUqXi__6wGc-9">
          <mxGeometry x="10" y="80" width="10" height="30" as="geometry" />
        </mxCell>
        <mxCell id="azgVvd0FIIUqXi__6wGc-10" value="制度系统" style="shape=umlLifeline;perimeter=lifelinePerimeter;whiteSpace=wrap;html=1;container=1;dropTarget=0;collapsible=0;recursiveResize=0;outlineConnect=0;portConstraint=eastwest;newEdgeStyle={&quot;curved&quot;:0,&quot;rounded&quot;:0};" vertex="1" parent="1">
          <mxGeometry x="306" y="130" width="100" height="300" as="geometry" />
        </mxCell>
        <mxCell id="azgVvd0FIIUqXi__6wGc-14" value="" style="html=1;points=[[0,0,0,0,5],[0,1,0,0,-5],[1,0,0,0,5],[1,1,0,0,-5]];perimeter=orthogonalPerimeter;outlineConnect=0;targetShapes=umlLifeline;portConstraint=eastwest;newEdgeStyle={&quot;curved&quot;:0,&quot;rounded&quot;:0};" vertex="1" parent="azgVvd0FIIUqXi__6wGc-10">
          <mxGeometry x="45" y="80" width="10" height="190" as="geometry" />
        </mxCell>
        <mxCell id="azgVvd0FIIUqXi__6wGc-11" value="法宝系统" style="shape=umlLifeline;perimeter=lifelinePerimeter;whiteSpace=wrap;html=1;container=1;dropTarget=0;collapsible=0;recursiveResize=0;outlineConnect=0;portConstraint=eastwest;newEdgeStyle={&quot;curved&quot;:0,&quot;rounded&quot;:0};" vertex="1" parent="1">
          <mxGeometry x="506" y="130" width="100" height="300" as="geometry" />
        </mxCell>
        <mxCell id="azgVvd0FIIUqXi__6wGc-15" value="" style="html=1;points=[[0,0,0,0,5],[0,1,0,0,-5],[1,0,0,0,5],[1,1,0,0,-5]];perimeter=orthogonalPerimeter;outlineConnect=0;targetShapes=umlLifeline;portConstraint=eastwest;newEdgeStyle={&quot;curved&quot;:0,&quot;rounded&quot;:0};" vertex="1" parent="azgVvd0FIIUqXi__6wGc-11">
          <mxGeometry x="45" y="100" width="10" height="60" as="geometry" />
        </mxCell>
        <mxCell id="azgVvd0FIIUqXi__6wGc-13" value="1、查询外规" style="html=1;verticalAlign=bottom;endArrow=block;curved=0;rounded=0;exitX=1;exitY=0.125;exitDx=0;exitDy=0;exitPerimeter=0;" edge="1" parent="1">
          <mxGeometry width="80" relative="1" as="geometry">
            <mxPoint x="206" y="230" as="sourcePoint" />
            <mxPoint x="351" y="230" as="targetPoint" />
          </mxGeometry>
        </mxCell>
        <mxCell id="azgVvd0FIIUqXi__6wGc-18" value="2、查询法宝系统的外规" style="html=1;verticalAlign=bottom;endArrow=block;curved=0;rounded=0;" edge="1" parent="1">
          <mxGeometry width="80" relative="1" as="geometry">
            <mxPoint x="361" y="250" as="sourcePoint" />
            <mxPoint x="551" y="250" as="targetPoint" />
          </mxGeometry>
        </mxCell>
        <mxCell id="azgVvd0FIIUqXi__6wGc-19" value="3、返回外规数据" style="html=1;verticalAlign=bottom;endArrow=open;dashed=1;endSize=8;curved=0;rounded=0;" edge="1" parent="1" target="azgVvd0FIIUqXi__6wGc-14">
          <mxGeometry relative="1" as="geometry">
            <mxPoint x="546" y="280" as="sourcePoint" />
            <mxPoint x="466" y="280" as="targetPoint" />
          </mxGeometry>
        </mxCell>
        <mxCell id="azgVvd0FIIUqXi__6wGc-22" value="alt" style="shape=umlFrame;whiteSpace=wrap;html=1;pointerEvents=0;" vertex="1" parent="1">
          <mxGeometry x="180" y="300" width="406" height="60" as="geometry" />
        </mxCell>
        <mxCell id="azgVvd0FIIUqXi__6wGc-24" value="4、查询本地外规" style="text;html=1;align=center;verticalAlign=middle;resizable=0;points=[];autosize=1;strokeColor=none;fillColor=none;" vertex="1" parent="1">
          <mxGeometry x="381" y="300" width="110" height="30" as="geometry" />
        </mxCell>
        <mxCell id="azgVvd0FIIUqXi__6wGc-23" value="" style="html=1;verticalAlign=bottom;endArrow=block;curved=0;rounded=0;" edge="1" parent="1">
          <mxGeometry width="80" relative="1" as="geometry">
            <mxPoint x="361" y="330" as="sourcePoint" />
            <mxPoint x="361" y="350" as="targetPoint" />
            <Array as="points">
              <mxPoint x="436" y="330" />
              <mxPoint x="436" y="350" />
            </Array>
          </mxGeometry>
        </mxCell>
        <mxCell id="azgVvd0FIIUqXi__6wGc-25" value="[法规数据为空]" style="text;html=1;align=center;verticalAlign=middle;resizable=0;points=[];autosize=1;strokeColor=none;fillColor=none;" vertex="1" parent="1">
          <mxGeometry x="256" y="310" width="100" height="30" as="geometry" />
        </mxCell>
        <mxCell id="azgVvd0FIIUqXi__6wGc-26" value="5、返回外规" style="html=1;verticalAlign=bottom;endArrow=open;dashed=1;endSize=8;curved=0;rounded=0;" edge="1" parent="1">
          <mxGeometry relative="1" as="geometry">
            <mxPoint x="351" y="380" as="sourcePoint" />
            <mxPoint x="200.5" y="380" as="targetPoint" />
          </mxGeometry>
        </mxCell>
      </root>
    </mxGraphModel>
  </diagram>
</mxfile>
